# xmcd
#
# Track frame offsets:
#	150
#	16511
#	25533
#	35924
#	45156
#	55104
#	67766
#	79536
#	88393
#	102027
#	111586
#	124593
#	138163
#	149300
#	159467
#	171068
#	182874
#	192950
#	203640
#	217680
#	231242
#	241515
#
# Disc length: 3384 seconds
#
# Revision: 1
# Processed by: cddbd v1.5.2PL0 Copyright (c) Steve Scherf et al.
# Submitted via: audiograbber 1.83.01
#
DISCID=120d3616
DTITLE=Various Artist - Queens of Country - CD1
DYEAR=2015
DGENRE=Country
TTITLE0=Brenda Lee - Georgia On My Mind
TTITLE1=Patsy Cline - Walkin' After Midnight
TTITLE2=June Carter Cash - Juke Box Blues
TTITLE3=Loretta Lynn - Gonna Pack My Troubles
TTITLE4=Jean Shepard - I Didn't Know The Gun Was Loaded
TTITLE5=Patsy Cline - I Fall To Pieces
TTITLE6=Kitty Wells - Paying For That Back Street Affair
TTITLE7=Patsy Cline - When A House Is Not A Home
TTITLE8=Kitty Wells - Death At The Bar
TTITLE9=Wanda Jackson - Let's Have A Party
TTITLE10=June Carter - Tennessee Mambo
TTITLE11=Patsy Cline - She's Got You
TTITLE12=Bonnie Guitar - Mister Fire Eyes
TTITLE13=Patsy Cline - Three Cigarettes (In An Ashtray)
TTITLE14=Wanda Jackson - In The Middle Of A Heartache
TTITLE15=Patsy Cline - A Poor Man's Roses (Or A Rich Man's Gold)
TTITLE16=Jeannie Mack - Dirty Dishes
TTITLE17=Patsy Cline - Honky Tonk Merry Go Round
TTITLE18=Patsy Montana and The Prairie Ramblers - I Want To Be A Cowboy's Sweethe
TTITLE18=art
TTITLE19=Aarons Sisters - She Come Rolling Down The Mountain
TTITLE20=Loretta Lynn - Honky Tonk Girl
TTITLE21=Skeeter Davis - (I Can't Help You) I'm Falling Too
EXTD=
EXTT0=
EXTT1=
EXTT2=
EXTT3=
EXTT4=
EXTT5=
EXTT6=
EXTT7=
EXTT8=
EXTT9=
EXTT10=
EXTT11=
EXTT12=
EXTT13=
EXTT14=
EXTT15=
EXTT16=
EXTT17=
EXTT18=
EXTT19=
EXTT20=
EXTT21=
PLAYORDER=
